# xmcd
#
# Track frame offsets:
# 150
# 14991
# 29050
# 39991
# 55269
# 68188
# 85812
# 97157
# 111295
# 130343
# 143725
# 161829
# 173272
# 186428
# 201268
# 214900
# 235780
# 254356
#
# Disc length: 3593 seconds
#
#
# Revision: 0
# Processed by: cddbd v1.5.1PL0 Copyright (c) Steve Scherf et al.
# Submitted via: FreeRIP 2.93 
#
DISCID=0e0e0712
DTITLE=Norah Jones - The Music Of Norah Jones
DYEAR=1900
DGENRE=
TTITLE0=come away with me
TTITLE1=don't know why
TTITLE2=seven years
TTITLE3=cold cold heart
TTITLE4=feeling the same way
TTITLE5=shoot the moon
TTITLE6=turn me on
TTITLE7=lonestar
TTITLE8=i've got the see you again
TTITLE9=one flight down
TTITLE10=nightingale
TTITLE11=the long day is over
TTITLE12=the nearness of you
TTITLE13=sunrise
TTITLE14=don't miss you at all
TTITLE15=humble me
TTITLE16=in the mornin'
TTITLE17=those sweet words
EXTD=
EXTT0=
EXTT1=
EXTT2=
EXTT3=
EXTT4=
EXTT5=
EXTT6=
EXTT7=
EXTT8=
EXTT9=
EXTT10=
EXTT11=
EXTT12=
EXTT13=
EXTT14=
EXTT15=
EXTT16=
EXTT17=
PLAYORDER=
